Coordinates
version=1
nRows=17
nColumns=40
inDegrees=yes

Units are S.I. units (second, meters, Newtons, ...)
Angles are in degrees.

endheader
time	pelvis_tilt	pelvis_list	pelvis_rotation	pelvis_tx	pelvis_ty	pelvis_tz	hip_flexion_r	hip_adduction_r	hip_rotation_r	knee_angle_r	knee_angle_r_beta	ankle_angle_r	subtalar_angle_r	mtp_angle_r	hip_flexion_l	hip_adduction_l	hip_rotation_l	knee_angle_l	knee_angle_l_beta	ankle_angle_l	subtalar_angle_l	mtp_angle_l	lumbar_extension	lumbar_bending	lumbar_rotation	arm_flex_r	arm_add_r	arm_rot_r	elbow_flex_r	pro_sup_r	wrist_flex_r	wrist_dev_r	arm_flex_l	arm_add_l	arm_rot_l	elbow_flex_l	pro_sup_l	wrist_flex_l	wrist_dev_l
     10.50000000	      5.88094146	     22.20678494	     78.36768666	      0.60550164	      1.03188424	     -1.00622137	    -29.71480555	      1.00716468	      7.33211510	      4.61275458	      0.08050775	      7.80499416	      0.00000000	      0.00000000	     -4.82170964	     -6.48811206	    -16.79513535	      6.36776832	      0.11113852	      5.56355138	      0.00000000	      0.00000000	    -38.87339813	      1.63357206	     10.70647434	      7.99842148	    -17.22178103	      0.17644189	    140.47945854	     86.48159147	      0.00000000	      0.00000000	     -1.33217892	     -1.70683963	     -1.24754882	    137.16975298	     83.39498376	      0.00000000	      0.00000000
     10.51000000	      6.38336464	     21.69954003	     78.15446359	      0.60476991	      1.02955152	     -1.00509007	    -29.74075845	      1.37370131	      7.34560775	      5.07011540	      0.08849021	      8.45135502	      0.00000000	      0.00000000	     -4.62834044	     -6.81501375	    -14.96770684	      3.41048720	      0.05952423	      5.01818296	      0.00000000	      0.00000000	    -38.69199560	      2.03889574	     10.97491110	      8.17465683	    -17.33411480	      0.27743466	    140.40899151	     86.52307361	      0.00000000	      0.00000000	     -1.23156234	     -1.66292228	     -1.24794219	    137.12436892	     83.43968574	      0.00000000	      0.00000000
     10.52000000	      6.94587759	     21.22608096	     77.99535268	      0.60397377	      1.02690372	     -1.00381134	    -29.75639542	      1.82708521	      7.44528895	      5.63355191	      0.09832403	      9.06196117	      0.00000000	      0.00000000	     -4.16762429	     -7.37071771	    -13.36451475	      1.45737051	      0.02543591	      5.10026700	      0.00000000	      0.00000000	    -38.54923977	      2.50868006	     11.18005707	      8.45911569	    -17.44742341	      0.45421736	    140.32988651	     86.55808613	      0.00000000	      0.00000000	     -1.02491324	     -1.69937497	     -1.21919752	    137.04784497	     83.46741392	      0.00000000	      0.00000000
     10.53000000	      7.42739372	     20.71015082	     78.42713986	      0.60243749	      1.02384091	     -1.00263336	    -29.76464236	      2.48225102	      7.15811851	      6.16203176	      0.10754774	      9.67023155	      0.00000000	      0.00000000	     -3.08006978	     -8.00853728	    -11.43123501	      0.78786975	      0.01375092	      5.42436925	      0.00000000	      0.00000000	    -38.31787313	      3.22135796	     10.87381153	      8.73207223	    -17.43045649	      0.68808475	    140.22918399	     86.58837536	      0.00000000	      0.00000000	     -0.72964891	     -1.90422427	     -1.18108191	    137.03246349	     83.46520755	      0.00000000	      0.00000000
     10.54000000	      7.89014522	     20.28283844	     78.58636117	      0.60083873	      1.02059648	     -1.00193567	    -29.77306076	      2.93846997	      7.05473169	      6.89084741	      0.12026798	     10.40692525	      0.00000000	      0.00000000	     -2.14977201	     -8.53977901	     -9.87663138	      0.61680219	      0.01076523	      5.85014787	      0.00000000	      0.00000000	    -38.07819129	      3.78831378	     10.75733647	      8.96159395	    -17.53012639	      0.87578431	    140.16976236	     86.56545074	      0.00000000	      0.00000000	     -0.48391531	     -2.00400309	     -1.02038850	    136.94740951	     83.10697785	      0.00000000	      0.00000000
     10.55000000	      8.32330684	     20.04002015	     78.41770457	      0.59951348	      1.01736840	     -1.00204198	    -29.78719472	      3.14313732	      7.00302741	      8.02890522	      0.14013083	     11.25409848	      0.00000000	      0.00000000	     -1.65856472	     -8.93763277	     -9.02946575	      0.61950866	      0.01081247	      6.52306296	      0.00000000	      0.00000000	    -37.89529149	      4.12349362	     10.84261406	      9.05421197	    -17.64478653	      1.04770251	    140.13812874	     86.36921275	      0.00000000	      0.00000000	     -0.28687090	     -2.10899792	     -0.80916944	    136.87056983	     82.91717576	      0.00000000	      0.00000000
     10.56000000	      8.67201853	     19.88033905	     78.17124873	      0.59826886	      1.01404824	     -1.00277547	    -29.80089788	      3.17433338	      6.98373511	      9.33126275	      0.16286126	     11.98840731	      0.00000000	      0.00000000	     -1.41056863	     -9.19555965	     -8.23698282	      0.82122116	      0.01433301	      6.95766606	      0.00000000	      0.00000000	    -37.65400284	      4.33991716	     10.93662059	      9.04829685	    -17.70665199	      1.29882444	    140.03370155	     86.45971584	      0.00000000	      0.00000000	     -0.11344276	     -2.28104039	     -0.55058867	    136.67781113	     83.03201663	      0.00000000	      0.00000000
     10.57000000	      8.99131714	     19.80546793	     77.86719657	      0.59711812	      1.01073135	     -1.00388644	    -29.81552144	      3.12515789	      7.09115504	     10.85170051	      0.18939790	     12.85670699	      0.00000000	      0.00000000	     -1.27078033	     -9.41597278	     -7.54336244	      1.46125014	      0.02550363	      7.25455620	      0.00000000	      0.00000000	    -37.44186028	      4.47031943	     11.03293296	      8.92683954	    -17.73182948	      1.49454189	    140.00122588	     86.49977293	      0.00000000	      0.00000000	      0.01048293	     -2.45349130	     -0.32105060	    136.55124614	     83.11284648	      0.00000000	      0.00000000
     10.58000000	      9.17211011	     19.80154874	     77.66594398	      0.59570127	      1.00733459	     -1.00530863	    -29.82362550	      2.94304281	      7.08277613	     12.52288794	      0.21856563	     13.77886009	      0.00000000	      0.00000000	     -0.92906320	     -9.49645209	     -7.46707519	      2.91180995	      0.05082067	      7.74670946	      0.00000000	      0.00000000	    -37.22426445	      4.50518711	     10.98687196	      8.74693331	    -17.69291943	      1.59460654	    139.98690453	     86.52016146	      0.00000000	      0.00000000	      0.11976723	     -2.63568681	     -0.11098015	    136.46316058	     83.19070649	      0.00000000	      0.00000000
     10.59000000	      9.22223905	     19.79041624	     77.68385841	      0.59419549	      1.00378433	     -1.00679765	    -29.82870055	      2.74192987	      7.01390305	     14.16138404	      0.24716278	     14.32989392	      0.00000000	      0.00000000	     -0.20009211	     -9.52797530	     -8.03371652	      5.24225041	      0.09149453	      7.99660002	      0.00000000	      0.00000000	    -36.92293952	      4.49734746	     10.70310236	      8.54448420	    -17.53757350	      1.72214593	    139.92669117	     86.54263270	      0.00000000	      0.00000000	      0.27989708	     -2.91319282	      0.08900187	    136.39475693	     83.24422318	      0.00000000	      0.00000000
     10.60000000	      9.34698783	     19.81137838	     77.77039547	      0.59253060	      1.00031358	     -1.00832417	    -29.83155334	      2.64770585	      6.89922571	     15.87695415	      0.27710513	     14.77595029	      0.00000000	      0.00000000	      0.56449683	     -9.67541158	     -8.70298138	      7.84325202	      0.13689057	      7.47210562	      0.00000000	      0.00000000	    -36.67909306	      4.60092198	     10.37893726	      8.29477809	    -17.35171783	      1.84189078	    139.90160334	     86.54329603	      0.00000000	      0.00000000	      0.45965573	     -3.14051077	      0.29679728	    136.35321510	     83.25716364	      0.00000000	      0.00000000
     10.61000000	      9.51014230	     19.83592464	     77.83669828	      0.59092065	      0.99684944	     -1.00999905	    -29.83425508	      2.60003712	      6.91969814	     17.59605294	      0.30710906	     15.10795414	      0.00000000	      0.00000000	      1.28233018	     -9.88073751	     -9.37129094	     10.33247623	      0.18033573	      6.70522422	      0.00000000	      0.00000000	    -36.40118798	      4.72108161	     10.03727100	      8.03171773	    -17.11130355	      1.98846168	    139.82783474	     86.53963440	      0.00000000	      0.00000000	      0.61140863	     -3.37995059	      0.40197225	    136.33007090	     83.25128974	      0.00000000	      0.00000000
     10.62000000	      9.63820409	     19.95052891	     77.84957051	      0.58926138	      0.99380435	     -1.01143517	    -29.83695406	      2.50602123	      7.14164259	     19.40524644	      0.33868544	     15.05461138	      0.00000000	      0.00000000	      1.79150024	    -10.00795380	     -9.92260310	     12.46648747	      0.21758125	      5.62250470	      0.00000000	      0.00000000	    -36.25135067	      4.74922189	      9.67990972	      7.84491740	    -16.82105945	      2.01269787	    139.72390180	     86.55115683	      0.00000000	      0.00000000	      0.80185323	     -3.63960413	      0.48301867	    136.28770707	     83.23642888	      0.00000000	      0.00000000
     10.63000000	      9.62069687	     20.22299448	     77.78664928	      0.58770393	      0.99141158	     -1.01256880	    -29.83665683	      2.22242143	      7.46057344	     21.39805722	      0.37346655	     14.81787585	      0.00000000	      0.00000000	      2.09267418	     -9.93079809	    -10.19796604	     14.48881572	      0.25287754	      4.56023576	      0.00000000	      0.00000000	    -36.28624383	      4.53998935	      9.31902539	      7.67319832	    -16.44005652	      2.07682303	    139.60786025	     86.55321584	      0.00000000	      0.00000000	      1.08552166	     -3.92104458	      0.52122234	    136.25050791	     83.20852401	      0.00000000	      0.00000000
     10.64000000	      9.41779524	     20.68593694	     77.61389260	      0.58622705	      0.98976830	     -1.01349470	    -29.83341951	      1.66239319	      7.73500277	     23.58764143	      0.41168201	     14.47704784	      0.00000000	      0.00000000	      2.20490703	     -9.60091613	    -10.31946066	     16.65680246	      0.29071605	      3.94446362	      0.00000000	      0.00000000	    -36.51515750	      4.04116750	      8.92364091	      7.51197016	    -16.01980925	      2.26716045	    139.45482339	     86.53525885	      0.00000000	      0.00000000	      1.33298577	     -4.16894435	      0.42589069	    136.26743442	     83.13919082	      0.00000000	      0.00000000
     10.65000000	      9.08320597	     21.32935533	     77.27356615	      0.58485233	      0.98890227	     -1.01441871	    -29.82872754	      0.88209640	      8.10602096	     25.98931492	      0.45359912	     13.60223709	      0.00000000	      0.00000000	      2.08431616	     -9.04778456	    -10.04151648	     19.12425151	      0.33378116	      4.69526413	      0.00000000	      0.00000000	    -36.90711581	      3.29637835	      8.60258950	      7.36871622	    -15.51663132	      2.31730607	    139.29080486	     86.53040785	      0.00000000	      0.00000000	      1.59688273	     -4.40747386	      0.35183008	    136.26625817	     83.06256277	      0.00000000	      0.00000000
     10.66000000	      8.59633614	     22.08322261	     76.90703458	      0.58357348	      0.98862674	     -1.01604643	    -29.81960269	     -0.06446926	      8.45858959	     28.53850820	      0.49809093	     12.22278833	      0.00000000	      0.00000000	      1.72643169	     -8.31186099	     -9.73307267	     21.73746376	      0.37939031	      6.62387127	      0.00000000	      0.00000000	    -37.27764592	      2.38434884	      8.23199855	      7.04244514	    -14.92456835	      2.39018609	    139.14014305	     86.53202709	      0.00000000	      0.00000000	      1.70720034	     -4.65237036	      0.24684991	    136.27472202	     82.96315060	      0.00000000	      0.00000000
